<svg width="13" height="19" viewBox="0 0 13 19" fill="none" xmlns="http://www.w3.org/2000/svg">
<path d="M9.47085 8.9535V3.43758C9.47085 1.41185 8.16425 0 6.27883 0C4.39345 0 3.08681 1.41185 3.08681 3.43758V8.9535C3.08681 10.9704 4.39345 12.391 6.27883 12.391C8.16425 12.391 9.47085 10.9704 9.47085 8.9535ZM8.1467 8.9535C8.1467 10.2513 7.40131 11.0844 6.27883 11.0844C5.15635 11.0844 4.41096 10.2513 4.41096 8.9535V3.43758C4.41096 2.1397 5.15635 1.30664 6.27883 1.30664C7.40131 1.30664 8.1467 2.1397 8.1467 3.43758V8.9535ZM2.35892 17.4422C1.99064 17.4422 1.70122 17.7404 1.70122 18.1087C1.70122 18.477 1.99064 18.7664 2.35892 18.7664H10.1987C10.5671 18.7664 10.8564 18.477 10.8564 18.1087C10.8564 17.7404 10.5671 17.4422 10.1987 17.4422H6.93653V15.3989C10.2864 15.1183 12.5489 12.7156 12.5489 9.26918V7.48901C12.5489 7.12069 12.2595 6.83131 11.8912 6.83131C11.5229 6.83131 11.2248 7.12069 11.2248 7.48901V9.21657C11.2248 12.2069 9.27794 14.1888 6.27883 14.1888C3.27972 14.1888 1.32415 12.2069 1.32415 9.21657V7.48901C1.32415 7.12069 1.03477 6.83131 0.666451 6.83131C0.298129 6.83131 0 7.12069 0 7.48901V9.26918C0 12.7156 2.27125 15.1183 5.61238 15.3989V17.4422H2.35892Z" fill="#AEAEB2"/>
</svg>
