<svg width="23" height="19" viewBox="0 0 23 19" fill="none" xmlns="http://www.w3.org/2000/svg">
<path d="M0.451096 10.4759C0.451096 15.0092 3.49474 18.0422 8.51038 18.0422H10.8467C13.3224 18.0422 14.7584 16.874 14.7906 14.8806C15.573 14.6341 16.0552 13.9911 16.0552 13.0909C16.0552 12.7908 15.9909 12.48 15.8945 12.1585C16.7518 11.8798 17.2877 11.1725 17.2877 10.2401C17.2877 9.99358 17.2555 9.73642 17.1698 9.47916H20.7386C22.0997 9.47916 23 8.57894 23 7.31433C23 6.03898 22.0997 5.13876 20.7386 5.13876H11.8005C11.7469 5.13876 11.7041 5.10657 11.7041 5.05302C11.7041 5.01013 11.7362 4.97799 11.7791 4.96724L13.4938 4.24924C14.6084 3.77767 15.0371 2.81311 14.662 1.80571C14.244 0.680431 13.1509 0.262445 11.8112 0.733976L6.50624 2.62019C2.48734 4.04558 0.451096 6.69273 0.451096 10.4759ZM1.93003 10.5295C1.93003 7.52865 3.31252 5.2352 6.96707 3.92769L12.2614 2.03078C12.8186 1.82716 13.2259 1.97719 13.3974 2.40587C13.5474 2.81311 13.3117 3.18821 12.8508 3.39183L9.59277 4.84936C9.05695 5.08517 8.88548 5.41737 8.88548 5.79247C8.88548 6.2426 9.23913 6.5641 9.7321 6.5641H20.835C21.2959 6.5641 21.6175 6.87495 21.6175 7.31433C21.6175 7.75372 21.2959 8.05378 20.835 8.05378H12.9044C12.5293 8.05378 12.2506 8.37532 12.2506 8.75042C12.2506 9.11481 12.5293 9.41487 12.9044 9.41487H15.7551C15.8516 9.59709 15.9052 9.84355 15.9052 10.0579C15.9052 10.5937 15.5515 10.9153 14.9942 10.9153H12.4971C12.1006 10.9153 11.8434 11.2368 11.8434 11.6012C11.8434 11.9548 12.1006 12.2763 12.4971 12.2763H14.5227C14.6191 12.4586 14.6727 12.7051 14.6727 12.9086C14.6727 13.4552 14.3191 13.766 13.7617 13.766H12.0899C11.6934 13.766 11.4254 14.0983 11.4254 14.4627C11.4254 14.8163 11.6934 15.1271 12.0899 15.1271H13.3224C13.3224 16.0809 12.3364 16.6275 10.6324 16.6275H8.68181C4.37356 16.6275 1.93003 14.3126 1.93003 10.5295Z" fill="#AEAEB2"/>
</svg>
