<svg width="16" height="21" viewBox="0 0 16 21" fill="none" xmlns="http://www.w3.org/2000/svg">
<path d="M2.66923 18.4608H7.38774C6.93142 18.0733 6.54395 17.6084 6.25978 17.0746H2.74671C1.85986 17.0746 1.38627 16.6182 1.38627 15.7571V2.72952C1.38627 1.87709 1.85123 1.38631 2.74671 1.38631H11.7446C12.6057 1.38631 13.0965 1.86849 13.0965 2.72952V10.2378C13.6303 10.522 14.0953 10.9008 14.4828 11.3572V2.70369C14.4828 0.904084 13.5959 0 11.8135 0H2.66923C0.895487 0 0 0.912718 0 2.70369V15.7658C0 17.5653 0.895487 18.4608 2.66923 18.4608ZM3.98662 4.89937H10.5134C10.8147 4.89937 11.0472 4.65826 11.0472 4.3569C11.0472 4.06414 10.8147 3.84026 10.5134 3.84026H3.98662C3.66806 3.84026 3.44418 4.06414 3.44418 4.3569C3.44418 4.65826 3.66806 4.89937 3.98662 4.89937ZM3.98662 7.90439H10.5134C10.8147 7.90439 11.0472 7.66332 11.0472 7.36196C11.0472 7.06919 10.8147 6.84531 10.5134 6.84531H3.98662C3.66806 6.84531 3.44418 7.06919 3.44418 7.36196C3.44418 7.66332 3.66806 7.90439 3.98662 7.90439ZM10.6167 18.4608C11.3916 18.4608 12.1235 18.2369 12.7262 17.8323L14.6636 19.7782C14.8702 19.9763 15.0597 20.0538 15.2922 20.0538C15.6882 20.0538 15.9896 19.7438 15.9896 19.3047C15.9896 19.1152 15.8949 18.9258 15.7486 18.7794L13.7853 16.8162C14.2245 16.1877 14.4828 15.4213 14.4828 14.5947C14.4828 12.4507 12.7521 10.72 10.6167 10.72C8.48129 10.72 6.73337 12.4679 6.73337 14.5947C6.73337 16.7301 8.48129 18.4608 10.6167 18.4608ZM10.6167 17.2295C9.15293 17.2295 7.96468 16.0499 7.96468 14.5947C7.96468 13.1568 9.15293 11.9599 10.6167 11.9599C12.0546 11.9599 13.2429 13.1568 13.2429 14.5947C13.2429 16.0499 12.0632 17.2295 10.6167 17.2295Z" fill="#AEAEB2"/>
</svg>
