<svg width="19" height="15" viewBox="0 0 19 15" fill="none" xmlns="http://www.w3.org/2000/svg">
<path d="M2.7029 14.8314H16.5615C18.1111 14.8314 19.0064 13.9362 19.0064 12.163V2.65985C19.0064 0.895224 18.1025 0 16.3035 0H2.44467C0.903818 0 0 0.88663 0 2.65985V12.163C0 13.9448 0.912449 14.8314 2.7029 14.8314ZM8.47882 7.85042L1.97981 1.43754C2.16921 1.36004 2.39299 1.317 2.65985 1.317H16.3551C16.6219 1.317 16.8544 1.36004 17.0524 1.45476L10.5619 7.85042C10.1918 8.22056 9.86469 8.3841 9.52037 8.3841C9.17605 8.3841 8.84896 8.22056 8.47882 7.85042ZM1.31703 12.163V2.65985C1.31703 2.59958 1.31703 2.6254 1.31703 2.57376L6.26657 7.42865L1.32563 12.3093C1.31703 12.2663 1.31703 12.2146 1.31703 12.163ZM17.6893 2.66845V12.1716V12.2835L12.7742 7.42865L17.6893 2.59958V2.66845ZM2.65985 13.5144C2.41022 13.5144 2.20363 13.48 2.02286 13.4025L7.17042 8.31524L7.72992 8.86615C8.33247 9.4601 8.90919 9.70973 9.52037 9.70973C10.1229 9.70973 10.7083 9.4601 11.3108 8.86615L11.8703 8.31524L17.0093 13.3939C16.8285 13.48 16.6047 13.5144 16.3551 13.5144H2.65985Z" fill="#AEAEB2"/>
</svg>
